<svg width="183" height="157" viewBox="0 0 183 157" fill="none" xmlns="http://www.w3.org/2000/svg">
<rect x="43.6301" y="63" width="135.215" height="70" rx="12" transform="rotate(10.3948 43.6301 63)" fill="#F7A59E"/>
<path d="M74.1387 121.036C72.3865 120.714 70.8821 119.972 69.6257 118.81C68.3811 117.64 67.5049 116.098 66.9972 114.183C66.5014 112.26 66.4896 110.012 66.9618 107.439C67.4468 104.795 68.2756 102.676 69.4483 101.079C70.6227 99.4734 71.9958 98.3643 73.5674 97.7523C75.1509 97.1321 76.7887 96.9772 78.4809 97.2877C79.7725 97.5247 80.8085 97.9425 81.5887 98.5411C82.3808 99.1315 82.9825 99.8008 83.3938 100.549C83.8169 101.289 84.1116 101.995 84.2781 102.667L84.4733 102.703L86.5954 91.1385L92.9786 92.3098L87.3343 123.069L81.0263 121.911L81.7042 118.217L81.4339 118.167C81.0159 118.753 80.4737 119.311 79.8073 119.84C79.1527 120.362 78.3521 120.748 77.4057 120.999C76.4693 121.251 75.3803 121.264 74.1387 121.036ZM77.1005 116.316C78.1319 116.506 79.0544 116.385 79.8682 115.955C80.6939 115.516 81.3906 114.821 81.9585 113.87C82.5364 112.92 82.9512 111.76 83.2029 110.388C83.4547 109.016 83.4831 107.79 83.2881 106.709C83.0932 105.627 82.6858 104.745 82.066 104.062C81.4461 103.379 80.6205 102.943 79.5892 102.754C78.5379 102.561 77.5994 102.684 76.7737 103.122C75.9481 103.561 75.2572 104.252 74.7012 105.195C74.1452 106.138 73.745 107.276 73.5006 108.607C73.2544 109.949 73.2219 111.17 73.4031 112.269C73.5962 113.36 73.9949 114.261 74.5993 114.972C75.2154 115.675 76.0492 116.123 77.1005 116.316ZM103.025 126.414C100.652 125.979 98.698 125.123 97.1622 123.848C95.6383 122.564 94.5783 120.952 93.9824 119.01C93.3882 117.059 93.3144 114.867 93.7609 112.434C94.1963 110.061 95.0391 108.063 96.2891 106.439C97.5392 104.816 99.0921 103.657 100.948 102.963C102.814 102.27 104.878 102.132 107.141 102.547C108.663 102.826 110.035 103.331 111.256 104.063C112.49 104.786 113.508 105.723 114.311 106.874C115.124 108.027 115.671 109.391 115.952 110.963C116.234 112.526 116.195 114.289 115.835 116.252L115.513 118.009L96.033 114.434L96.7606 110.469L110.218 112.939C110.387 112.017 110.336 111.165 110.066 110.38C109.796 109.596 109.342 108.938 108.705 108.407C108.079 107.868 107.301 107.513 106.37 107.342C105.399 107.164 104.496 107.231 103.663 107.544C102.841 107.849 102.151 108.338 101.592 109.012C101.036 109.675 100.669 110.462 100.492 111.371L99.8 115.141C99.5906 116.283 99.6199 117.307 99.8879 118.216C100.166 119.126 100.654 119.878 101.352 120.472C102.051 121.065 102.936 121.461 104.007 121.657C104.718 121.788 105.387 121.807 106.015 121.715C106.642 121.623 107.203 121.416 107.697 121.092C108.191 120.769 108.601 120.337 108.928 119.797L114.774 121.273C114.213 122.64 113.369 123.768 112.243 124.659C111.129 125.541 109.787 126.144 108.217 126.466C106.658 126.78 104.928 126.763 103.025 126.414ZM142.993 109.436L130.694 131.025L123.485 129.703L119.653 105.153L126.412 106.393L128.174 123.779L128.414 123.823L136.219 108.193L142.993 109.436Z" fill="black"/>
<rect y="29.3491" width="173.483" height="70" rx="12" transform="rotate(-9.41176 0 29.3491)" fill="#F8CC47"/>
<path d="M34.3951 74.8493C32.6375 75.1405 30.9708 74.9524 29.3949 74.2849C27.8274 73.6057 26.4804 72.4513 25.3539 70.8219C24.2358 69.1808 23.4629 67.0697 23.0351 64.4887C22.5957 61.8374 22.6572 59.5622 23.2196 57.6632C23.7803 55.7542 24.6963 54.2455 25.9675 53.137C27.2472 52.0169 28.7356 51.3162 30.4329 51.0349C31.7284 50.8202 32.8446 50.8622 33.7816 51.161C34.7269 51.448 35.5198 51.8739 36.1602 52.4384C36.8091 52.9913 37.3257 53.5558 37.7101 54.1318L37.9059 54.0994L35.9835 42.4998L42.3859 41.4387L47.4989 72.2906L41.1719 73.3392L40.5577 69.6334L40.2866 69.6783C40.0918 70.371 39.7707 71.0794 39.3232 71.8037C38.884 72.5162 38.2617 73.1508 37.4562 73.7073C36.6608 74.2622 35.6404 74.6429 34.3951 74.8493ZM35.5824 69.4054C36.6168 69.234 37.444 68.808 38.0638 68.1274C38.692 67.4351 39.1121 66.5451 39.3239 65.4575C39.5458 64.3682 39.5428 63.1356 39.3148 61.7598C39.0867 60.3839 38.6979 59.2204 38.1481 58.2693C37.5984 57.3182 36.9162 56.6264 36.1016 56.1939C35.2869 55.7613 34.3624 55.6308 33.328 55.8022C32.2735 55.977 31.4321 56.4105 30.8039 57.1028C30.1757 57.7951 29.7598 58.6792 29.5563 59.7551C29.3528 60.831 29.3618 62.0368 29.5831 63.3726C29.8062 64.7183 30.1892 65.8776 30.7322 66.8504C31.2836 67.8116 31.9641 68.5243 32.7737 68.9886C33.5917 69.4412 34.5279 69.5802 35.5824 69.4054ZM63.3952 70.1205C61.0151 70.515 58.8864 70.3725 57.0093 69.6929C55.1405 69.0017 53.5969 67.8439 52.3783 66.2194C51.1581 64.5849 50.3458 62.5474 49.9413 60.107C49.5469 57.7268 49.6627 55.5613 50.2887 53.6105C50.9147 51.6597 51.9831 50.0432 53.4938 48.7609C55.0146 47.477 56.9098 46.647 59.1795 46.2708C60.7061 46.0178 62.1679 46.0284 63.5651 46.3024C64.9707 46.5648 66.2463 47.1015 67.3919 47.9125C68.5476 48.7219 69.524 49.819 70.321 51.2038C71.1164 52.5785 71.6772 54.2501 72.0034 56.2185L72.2955 57.981L52.7569 61.2191L52.0978 57.2421L65.5956 55.0052C65.4424 54.0812 65.1059 53.296 64.586 52.6495C64.0661 52.0031 63.4164 51.538 62.6368 51.2545C61.8655 50.9593 61.0129 50.889 60.0789 51.0438C59.1047 51.2053 58.2785 51.5744 57.6002 52.1511C56.9302 52.7162 56.4468 53.4103 56.1498 54.2334C55.8512 55.0465 55.7725 55.9108 55.914 56.8264L56.5406 60.6075C56.7303 61.7524 57.1052 62.7067 57.6651 63.4704C58.2351 64.2324 58.9493 64.7744 59.8075 65.0965C60.6657 65.4186 61.6322 65.4906 62.7068 65.3126C63.4198 65.1944 64.056 64.9858 64.6152 64.6867C65.1745 64.3877 65.6317 64.0023 65.9869 63.5307C66.3421 63.0591 66.582 62.5137 66.7064 61.8946L72.7067 61.3026C72.6417 62.7786 72.2305 64.1263 71.4729 65.3457C70.7237 66.5533 69.6651 67.5749 68.297 68.4104C66.9373 69.2342 65.3034 69.8043 63.3952 70.1205ZM94.6397 47.4831L88.8245 48.8183C88.6408 48.3328 88.35 47.9166 87.952 47.5698C87.5524 47.213 87.0614 46.959 86.4792 46.8078C85.9053 46.645 85.2467 46.6251 84.5036 46.7483C83.5093 46.9131 82.7057 47.263 82.0927 47.7979C81.478 48.3229 81.2281 48.9318 81.3429 49.6248C81.4344 50.1772 81.7328 50.6075 82.2379 50.9159C82.7431 51.2243 83.5521 51.405 84.6649 51.4579L88.9927 51.6074C91.3188 51.6966 93.1192 52.1618 94.3937 53.0031C95.6682 53.8444 96.4435 55.0986 96.7198 56.7657C96.9712 58.2822 96.7448 59.687 96.0407 60.98C95.3467 62.2714 94.2796 63.3666 92.8395 64.2656C91.4078 65.153 89.6876 65.7631 87.6791 66.096C84.616 66.6036 82.0698 66.3704 80.0407 65.3962C78.0199 64.4103 76.6708 62.8384 75.9933 60.6805L82.2503 59.303C82.5959 60.2054 83.1761 60.8419 83.9908 61.2125C84.8038 61.5731 85.7828 61.6585 86.9277 61.4687C88.0525 61.2823 88.9206 60.9166 89.5319 60.3716C90.1516 59.8148 90.4091 59.1892 90.3043 58.4945C90.1977 57.9137 89.8726 57.4774 89.329 57.1857C88.7837 56.884 87.9922 56.7159 86.9546 56.6815L82.8152 56.5472C80.4806 56.4697 78.6686 55.9652 77.3791 55.0335C76.0997 54.1002 75.3169 52.7698 75.0306 51.0424C74.7842 49.556 74.9738 48.209 75.5991 47.0012C76.2345 45.7918 77.237 44.7744 78.6068 43.9489C79.9866 43.1217 81.6657 42.5442 83.6441 42.2163C86.5666 41.732 88.9688 41.9685 90.8507 42.9258C92.7426 43.8815 94.0056 45.4006 94.6397 47.4831ZM101.949 63.2667L98.1145 40.1277L104.532 39.0642L108.367 62.2031L101.949 63.2667ZM100.844 36.6107C99.8898 36.7688 99.0189 36.5881 98.2311 36.0686C97.4517 35.5374 96.988 34.8248 96.8398 33.931C96.6934 33.0472 96.9042 32.2332 97.4722 31.489C98.0486 30.7331 98.8138 30.2761 99.7679 30.118C100.722 29.9598 101.589 30.1464 102.368 30.6776C103.156 31.1972 103.623 31.8988 103.769 32.7826C103.918 33.6764 103.703 34.5013 103.127 35.2572C102.559 36.0014 101.798 36.4526 100.844 36.6107ZM125.45 68.7827C123.371 69.1272 121.541 69.1364 119.96 68.8103C118.39 68.4926 117.088 67.919 116.053 67.0896C115.018 66.2603 114.269 65.2596 113.806 64.0877L119.609 62.3057C119.867 62.7377 120.224 63.1221 120.683 63.4589C121.141 63.7957 121.711 64.0313 122.394 64.1659C123.088 64.3087 123.903 64.3028 124.837 64.148C126.233 63.9167 127.326 63.3846 128.117 62.5519C128.919 61.7276 129.189 60.522 128.926 58.9352L128.224 54.7021L127.953 54.7471C127.778 55.4364 127.457 56.1139 126.99 56.7796C126.522 57.4452 125.876 58.0321 125.053 58.5401C124.229 59.0481 123.204 59.4036 121.979 59.6067C120.242 59.8946 118.593 59.755 117.034 59.1879C115.483 58.6092 114.148 57.5561 113.028 56.0288C111.916 54.4897 111.148 52.4398 110.724 49.8788C110.289 47.2576 110.353 44.9975 110.916 43.0985C111.478 41.1995 112.395 39.6958 113.666 38.5874C114.948 37.4773 116.437 36.7816 118.134 36.5004C119.43 36.2857 120.551 36.3268 121.498 36.6239C122.443 36.911 123.236 37.3368 123.877 37.9014C124.525 38.4542 125.047 39.0179 125.441 39.5923L125.682 39.5523L125.038 35.6657L131.411 34.6096L135.283 57.9745C135.609 59.943 135.4 61.6699 134.656 63.1553C133.911 64.6408 132.74 65.8564 131.143 66.8022C129.557 67.7563 127.659 68.4165 125.45 68.7827ZM123.214 54.449C124.248 54.2776 125.079 53.8767 125.708 53.2463C126.344 52.6043 126.773 51.7695 126.995 50.7422C127.225 49.7031 127.228 48.5057 127.003 47.1499C126.779 45.7941 126.393 44.6507 125.847 43.7197C125.299 42.7786 124.617 42.0918 123.803 41.6593C122.988 41.2268 122.064 41.0962 121.029 41.2677C119.975 41.4424 119.133 41.8759 118.505 42.5682C117.875 43.2505 117.458 44.1245 117.253 45.1904C117.047 46.2563 117.054 47.447 117.272 48.7627C117.493 50.0984 117.87 51.2225 118.403 52.1351C118.945 53.036 119.616 53.6935 120.418 54.1076C121.227 54.51 122.159 54.6238 123.214 54.449ZM144.553 42.4615L146.77 55.8387L140.352 56.9022L136.517 33.7633L142.634 32.7497L143.31 36.8321L143.581 36.7872C143.87 35.3566 144.553 34.1497 145.628 33.1666C146.702 32.1735 148.097 31.5346 149.815 31.25C151.421 30.9837 152.881 31.103 154.192 31.608C155.504 32.1129 156.599 32.9633 157.479 34.159C158.356 35.3447 158.944 36.8364 159.242 38.634L161.683 53.367L155.266 54.4306L153.014 40.8425C152.789 39.4248 152.245 38.38 151.38 37.7081C150.514 37.0261 149.438 36.7917 148.152 37.0047C147.289 37.1479 146.556 37.4602 145.955 37.9416C145.364 38.4214 144.942 39.0486 144.688 39.8232C144.443 40.5861 144.398 41.4656 144.553 42.4615Z" fill="black"/>
</svg>
