<svg width="183" height="213" viewBox="0 0 183 213" fill="none" xmlns="http://www.w3.org/2000/svg">
<rect x="43.6301" y="119.021" width="135.215" height="70" rx="12" transform="rotate(10.3948 43.6301 119.021)" fill="#F7A59E"/>
<path d="M73.9696 177.025C72.2174 176.704 70.7131 175.962 69.4566 174.8C68.212 173.63 67.3359 172.087 66.8282 170.172C66.3323 168.249 66.3205 166.001 66.7927 163.428C67.2778 160.785 68.1066 158.665 69.2792 157.069C70.4537 155.463 71.8267 154.354 73.3984 153.742C74.9818 153.122 76.6197 152.967 78.3118 153.277C79.6035 153.514 80.6394 153.932 81.4197 154.531C82.2118 155.121 82.8135 155.79 83.2247 156.538C83.6478 157.279 83.9426 157.985 84.109 158.657L84.3043 158.693L86.4264 147.128L92.8095 148.299L87.1652 179.058L80.8572 177.901L81.5352 174.206L81.2648 174.157C80.8469 174.742 80.3047 175.3 79.6382 175.83C78.9836 176.351 78.1831 176.738 77.2366 176.988C76.3002 177.241 75.2112 177.253 73.9696 177.025ZM76.9315 172.306C77.9628 172.495 78.8854 172.375 79.6992 171.944C80.5248 171.506 81.2216 170.811 81.7895 169.859C82.3674 168.91 82.7822 167.749 83.0339 166.377C83.2856 165.006 83.314 163.779 83.1191 162.698C82.9242 161.617 82.5168 160.735 81.8969 160.052C81.277 159.369 80.4515 158.933 79.4201 158.744C78.3688 158.551 77.4303 158.673 76.6047 159.112C75.779 159.55 75.0882 160.241 74.5321 161.184C73.9761 162.128 73.5759 163.265 73.3315 164.597C73.0853 165.939 73.0528 167.159 73.2341 168.258C73.4272 169.35 73.8259 170.251 74.4302 170.962C75.0464 171.665 75.8802 172.113 76.9315 172.306ZM102.766 182.387C100.433 181.959 98.5067 181.093 96.9864 179.789C95.478 178.478 94.4267 176.846 93.8326 174.895C93.2403 172.933 93.161 170.771 93.5946 168.408C94.0318 166.025 94.8746 164.027 96.1228 162.414C97.3729 160.791 98.9349 159.639 100.809 158.958C102.695 158.269 104.804 158.139 107.137 158.567C109.47 158.995 111.391 159.865 112.899 161.176C114.42 162.48 115.476 164.113 116.068 166.074C116.662 168.025 116.741 170.192 116.303 172.575C115.87 174.938 115.028 176.931 113.778 178.555C112.53 180.168 110.963 181.319 109.077 182.008C107.203 182.689 105.099 182.815 102.766 182.387ZM103.706 177.436C104.767 177.631 105.708 177.493 106.53 177.023C107.353 176.543 108.041 175.81 108.594 174.825C109.157 173.841 109.562 172.679 109.808 171.337C110.055 169.995 110.089 168.765 109.911 167.645C109.744 166.528 109.361 165.599 108.762 164.857C108.163 164.116 107.333 163.648 106.272 163.453C105.2 163.257 104.243 163.397 103.4 163.873C102.567 164.352 101.869 165.083 101.305 166.066C100.752 167.051 100.352 168.215 100.106 169.557C99.8599 170.898 99.8206 172.128 99.9881 173.245C100.166 174.365 100.559 175.296 101.168 176.039C101.788 176.774 102.634 177.24 103.706 177.436ZM128.704 187.147C126.341 186.713 124.401 185.839 122.882 184.526C121.376 183.204 120.331 181.563 119.749 179.604C119.177 177.646 119.104 175.501 119.533 173.168C119.966 170.805 120.802 168.816 122.04 167.201C123.29 165.578 124.853 164.421 126.729 163.73C128.607 163.029 130.712 162.893 133.045 163.321C135.058 163.69 136.753 164.379 138.131 165.387C139.509 166.396 140.517 167.641 141.155 169.125C141.794 170.608 141.995 172.249 141.758 174.048L135.72 172.94C135.761 171.757 135.481 170.749 134.878 169.914C134.288 169.07 133.407 168.541 132.235 168.326C131.244 168.144 130.328 168.256 129.488 168.661C128.66 169.057 127.947 169.728 127.349 170.674C126.751 171.62 126.319 172.819 126.052 174.271C125.782 175.743 125.753 177.031 125.964 178.136C126.185 179.243 126.617 180.134 127.259 180.811C127.9 181.488 128.717 181.917 129.708 182.099C130.439 182.233 131.122 182.203 131.758 182.009C132.404 181.817 132.97 181.471 133.455 180.97C133.952 180.461 134.335 179.812 134.604 179.023L140.642 180.131C140.218 181.875 139.453 183.338 138.346 184.522C137.25 185.698 135.882 186.523 134.243 186.998C132.603 187.474 130.757 187.523 128.704 187.147Z" fill="black"/>
<rect y="85.3696" width="173.483" height="70" rx="12" transform="rotate(-9.41176 0 85.3696)" fill="#E89FE5"/>
<path d="M44.055 128.882L38.9419 98.0301L45.3594 96.9665L47.2817 108.566L47.4776 108.534C47.6556 107.864 47.9575 107.164 48.3832 106.433C48.8174 105.691 49.4305 105.032 50.2226 104.457C51.0231 103.87 52.0711 103.469 53.3667 103.255C55.0539 102.975 56.6838 103.159 58.2563 103.806C59.8272 104.444 61.186 105.576 62.3326 107.202C63.4775 108.818 64.2696 110.951 64.709 113.603C65.1368 116.184 65.0812 118.432 64.5422 120.348C64.0116 122.252 63.109 123.779 61.8344 124.929C60.5681 126.068 59.0562 126.783 57.2987 127.074C56.0534 127.28 54.9597 127.25 54.0178 126.983C53.0858 126.715 52.2921 126.315 51.6365 125.784C50.9793 125.242 50.4518 124.675 50.0541 124.08L49.7678 124.128L50.382 127.833L44.055 128.882ZM48.4194 116.271C48.6474 117.647 49.0372 118.816 49.5886 119.777C50.14 120.738 50.8246 121.445 51.6426 121.898C52.4589 122.34 53.3843 122.476 54.4187 122.304C55.4631 122.131 56.2995 121.699 56.9277 121.006C57.5543 120.304 57.9685 119.41 58.1703 118.324C58.3805 117.226 58.3741 116.004 58.151 114.659C57.9297 113.323 57.5491 112.179 57.0094 111.226C56.4698 110.273 55.7909 109.571 54.973 109.118C54.155 108.665 53.2188 108.526 52.1643 108.701C51.1198 108.874 50.2818 109.297 49.6502 109.969C49.0287 110.64 48.6112 111.514 48.3977 112.591C48.1842 113.669 48.1914 114.896 48.4194 116.271ZM81.4331 123.152C79.0931 123.54 76.987 123.378 75.115 122.666C73.2513 121.943 71.7093 120.765 70.4891 119.13C69.2672 117.486 68.4599 115.478 68.0671 113.108C67.671 110.718 67.7867 108.552 68.4144 106.612C69.0405 104.661 70.1197 103.048 71.6522 101.772C73.1931 100.485 75.1335 99.6474 77.4735 99.2596C79.8135 98.8718 81.9153 99.0394 83.779 99.7624C85.6511 100.474 87.1981 101.652 88.42 103.296C89.6402 104.931 90.4484 106.943 90.8445 109.333C91.2373 111.703 91.1207 113.864 90.4946 115.815C89.867 117.755 88.7827 119.369 87.2418 120.657C85.7093 121.932 83.7731 122.764 81.4331 123.152ZM80.6393 118.175C81.7039 117.999 82.5428 117.55 83.1559 116.83C83.7675 116.099 84.1666 115.176 84.3534 114.062C84.5502 112.946 84.5371 111.715 84.3141 110.369C84.0911 109.023 83.7064 107.854 83.16 106.861C82.6237 105.867 81.9483 105.122 81.1337 104.628C80.3191 104.133 79.3796 103.974 78.315 104.151C77.2404 104.329 76.3873 104.785 75.7557 105.519C75.1341 106.251 74.725 107.176 74.5281 108.292C74.3413 109.406 74.3595 110.636 74.5825 111.982C74.8055 113.328 75.1852 114.498 75.7215 115.492C76.2678 116.485 76.9533 117.228 77.778 117.721C78.611 118.202 79.5647 118.354 80.6393 118.175ZM107.449 118.84C105.109 119.228 103.003 119.066 101.131 118.355C99.2675 117.632 97.7256 116.453 96.5053 114.819C95.2835 113.174 94.4761 111.167 94.0833 108.797C93.6872 106.406 93.803 104.241 94.4307 102.3C95.0567 100.349 96.1359 98.7361 97.6684 97.4605C99.2093 96.1733 101.15 95.3358 103.49 94.948C105.83 94.5602 107.932 94.7278 109.795 95.4508C111.667 96.1621 113.214 97.34 114.436 98.9846C115.656 100.619 116.465 102.631 116.861 105.022C117.254 107.392 117.137 109.552 116.511 111.503C115.883 113.444 114.799 115.058 113.258 116.345C111.726 117.621 109.789 118.452 107.449 118.84ZM106.656 113.864C107.72 113.687 108.559 113.239 109.172 112.518C109.784 111.787 110.183 110.865 110.37 109.75C110.566 108.634 110.553 107.403 110.33 106.058C110.107 104.712 109.723 103.542 109.176 102.549C108.64 101.555 107.965 100.81 107.15 100.316C106.335 99.8215 105.396 99.6625 104.331 99.8389C103.257 100.017 102.404 100.473 101.772 101.207C101.15 101.94 100.741 102.864 100.544 103.98C100.358 105.094 100.376 106.325 100.599 107.67C100.822 109.016 101.201 110.186 101.738 111.181C102.284 112.174 102.97 112.917 103.794 113.409C104.627 113.89 105.581 114.042 106.656 113.864ZM127.647 108.187L126.387 100.487L127.321 100.332L133.277 90.321L140.643 89.1001L132.613 102.38L131.092 102.632L127.647 108.187ZM122.936 115.809L117.823 84.9573L124.24 83.8937L129.353 114.746L122.936 115.809ZM137.398 113.412L128.918 104.463L132.445 99.2194L144.915 112.167L137.398 113.412Z" fill="black"/>
<rect x="9.38684" width="173.483" height="70" rx="12" transform="rotate(3.59304 9.38684 0)" fill="#BBDF80"/>
<path d="M32.6409 52.1485C30.2431 51.9978 28.2126 51.3603 26.5492 50.2358C24.8967 49.1017 23.6653 47.5964 22.855 45.7197C22.0548 43.8436 21.7291 41.7219 21.8778 39.3547C22.0285 36.957 22.6229 34.8829 23.661 33.1325C24.71 31.3726 26.1249 30.0386 27.9058 29.1305C29.6872 28.2122 31.7616 27.8274 34.1289 27.9761C36.171 28.1044 37.9359 28.5876 39.4234 29.4257C40.911 30.2637 42.0596 31.3814 42.8695 32.7787C43.6793 34.1759 44.0731 35.7817 44.0509 37.5959L37.9245 37.211C37.8252 36.0318 37.427 35.0632 36.73 34.3055C36.0438 33.5381 35.1064 33.1172 33.9177 33.0425C32.9119 32.9793 32.0158 33.1984 31.2295 33.6998C30.454 34.1917 29.8254 34.9427 29.3437 35.9528C28.8621 36.963 28.575 38.2046 28.4824 39.6778C28.3886 41.1713 28.512 42.4541 28.8527 43.5261C29.2035 44.5987 29.7376 45.433 30.4549 46.0288C31.1723 46.6247 32.0339 46.9542 33.0397 47.0174C33.7814 47.064 34.4564 46.9534 35.0649 46.6856C35.6835 46.4185 36.204 46.0075 36.6264 45.4526C37.0597 44.8883 37.3631 44.1984 37.5367 43.3831L43.6632 43.768C43.4492 45.5498 42.8626 47.0939 41.9033 48.4005C40.9549 49.6975 39.6947 50.6791 38.1228 51.3453C36.551 52.0116 34.7237 52.2793 32.6409 52.1485ZM57.8285 53.7308C55.4613 53.5821 53.4456 52.9506 51.7817 51.8362C50.1285 50.7124 48.8913 49.2169 48.0702 47.3497C47.2498 45.4723 46.9148 43.3348 47.0655 40.9371C47.2174 38.519 47.8175 36.4351 48.8658 34.6854C49.9148 32.9255 51.3294 31.5965 53.1096 30.6986C54.9006 29.7911 56.9797 29.4117 59.347 29.5604C61.7143 29.7092 63.7245 30.3454 65.3777 31.4693C67.0417 32.5836 68.2839 34.0795 69.1043 35.9568C69.9254 37.824 70.26 39.9666 70.1081 42.3847C69.9575 44.7824 69.3577 46.8612 68.3087 48.6211C67.2604 50.3709 65.8407 51.6995 64.0497 52.607C62.2695 53.5049 60.1958 53.8795 57.8285 53.7308ZM58.175 48.7036C59.2519 48.7713 60.1702 48.5229 60.9299 47.9587C61.6901 47.3842 62.2867 46.5751 62.7194 45.5313C63.1624 44.4881 63.4266 43.2858 63.5121 41.9244C63.5977 40.563 63.486 39.3371 63.1771 38.2467C62.8784 37.1569 62.3878 36.2795 61.7054 35.6144C61.0229 34.9493 60.1433 34.583 59.0663 34.5153C57.9792 34.447 57.0453 34.6994 56.2647 35.2726C55.4943 35.8464 54.8876 36.6549 54.4447 37.6981C54.0119 38.7419 53.7527 39.9445 53.6672 41.3059C53.5817 42.6673 53.6883 43.8929 53.987 44.9827C54.2959 46.0731 54.7967 46.9512 55.4892 47.6169C56.1926 48.2731 57.0878 48.6353 58.175 48.7036ZM89.2374 45.2389L90.0818 31.7973L96.574 32.2052L95.1034 55.6136L88.8703 55.222L89.1374 50.9701L88.8936 50.9548C88.2791 52.2931 87.331 53.3403 86.0494 54.0962C84.7778 54.8527 83.2632 55.1757 81.5056 55.0653C79.941 54.967 78.5866 54.5249 77.4426 53.7391C76.2986 52.9532 75.4324 51.8839 74.8442 50.5311C74.2662 49.179 74.0295 47.5882 74.1342 45.7588L75.0706 30.8543L81.5628 31.2621L80.6992 45.0085C80.6225 46.3908 80.9248 47.5063 81.6058 48.3549C82.2869 49.2035 83.2422 49.6664 84.4715 49.7436C85.2538 49.7928 85.9965 49.6609 86.6995 49.3481C87.4032 49.0251 87.9857 48.5211 88.4469 47.8361C88.9183 47.1517 89.1818 46.286 89.2374 45.2389ZM100.296 55.9398L101.767 32.5314L108.061 32.9268L107.804 37.0111L108.048 37.0264C108.566 35.6004 109.351 34.5481 110.404 33.8696C111.457 33.181 112.639 32.8778 113.949 32.9602C114.275 32.9806 114.624 33.0229 114.997 33.0872C115.371 33.1514 115.697 33.2281 115.977 33.317L115.615 39.0777C115.316 38.9671 114.9 38.8594 114.366 38.7544C113.832 38.6495 113.341 38.5829 112.894 38.5549C111.939 38.4949 111.073 38.6495 110.295 39.0188C109.527 39.3786 108.902 39.9106 108.42 40.6146C107.947 41.3194 107.681 42.1492 107.621 43.1042L106.789 56.3477L100.296 55.9398ZM138.384 41.5332L132.418 41.5256C132.348 41.0112 132.158 40.5403 131.849 40.1128C131.54 39.6752 131.118 39.3173 130.585 39.039C130.062 38.7511 129.425 38.5836 128.673 38.5364C127.668 38.4732 126.806 38.6332 126.088 39.0166C125.371 39.3897 124.991 39.9268 124.947 40.6278C124.911 41.1866 125.105 41.6731 125.528 42.0873C125.951 42.5014 126.698 42.8595 127.771 43.1615L131.954 44.2811C134.2 44.8914 135.85 45.7498 136.902 46.8563C137.955 47.9629 138.428 49.3594 138.322 51.0459C138.226 52.5801 137.689 53.8979 136.712 54.9993C135.745 56.1013 134.459 56.9283 132.854 57.4803C131.259 58.0227 129.446 58.2301 127.414 58.1024C124.315 57.9077 121.887 57.1075 120.129 55.7016C118.382 54.2863 117.421 52.4511 117.246 50.1962L123.653 50.262C123.786 51.219 124.209 51.9698 124.919 52.5142C125.63 53.0485 126.565 53.352 127.723 53.4247C128.861 53.4962 129.789 53.3352 130.507 52.9418C131.236 52.5388 131.628 51.9871 131.682 51.2867C131.709 50.6968 131.49 50.1985 131.026 49.792C130.563 49.3753 129.83 49.0334 128.826 48.7664L124.823 47.704C122.566 47.1032 120.914 46.2038 119.867 45.0058C118.831 43.8085 118.367 42.3361 118.477 40.5886C118.572 39.0849 119.059 37.8151 119.94 36.779C120.832 35.7436 122.038 34.9779 123.558 34.4818C125.088 33.9863 126.854 33.8015 128.856 33.9272C131.812 34.113 134.1 34.884 135.718 36.2402C137.346 37.5971 138.235 39.3615 138.384 41.5332ZM152.594 59.6843C150.186 59.533 148.144 58.9152 146.468 57.8307C144.802 56.7366 143.559 55.2611 142.737 53.4041C141.916 51.5369 141.583 49.3689 141.738 46.9C141.89 44.4921 142.49 42.4082 143.539 40.6483C144.588 38.8885 145.992 37.5538 147.753 36.6444C149.524 35.7356 151.557 35.3534 153.853 35.4976C155.397 35.5947 156.819 35.9339 158.119 36.5153C159.429 37.0873 160.552 37.8973 161.485 38.9453C162.429 39.994 163.134 41.2827 163.599 42.8113C164.064 44.3297 164.235 46.0846 164.109 48.076L163.997 49.859L144.231 48.6173L144.484 44.5939L158.139 45.4518C158.198 44.5171 158.047 43.6763 157.685 42.9294C157.324 42.1825 156.796 41.5832 156.1 41.1315C155.415 40.6703 154.6 40.41 153.655 40.3506C152.67 40.2887 151.782 40.4624 150.991 40.8717C150.211 41.2715 149.584 41.839 149.109 42.5742C148.635 43.2992 148.364 44.1237 148.296 45.0476L148.056 48.8728C147.983 50.031 148.133 51.0452 148.507 51.9153C148.891 52.786 149.465 53.4748 150.229 53.9818C150.992 54.4888 151.918 54.7764 153.005 54.8447C153.726 54.8901 154.393 54.83 155.005 54.6644C155.617 54.4989 156.15 54.2263 156.602 53.8467C157.054 53.4671 157.41 52.9897 157.671 52.4145L163.651 53.188C163.255 54.6115 162.551 55.8321 161.539 56.8497C160.537 57.8577 159.276 58.6149 157.755 59.1211C156.244 59.6179 154.524 59.8056 152.594 59.6843Z" fill="black"/>
</svg>
