<svg width="242" height="85" viewBox="0 0 242 85" fill="none" xmlns="http://www.w3.org/2000/svg">
<rect x="5" width="236.546" height="70" rx="12" transform="rotate(3.59304 5 0)" fill="#9AE1FC"/>
<path d="M35.2527 60.8644L37.2748 28.6779L43.6755 29.08L43.4285 33.0119L43.7181 33.0301C44.0421 32.418 44.4938 31.8038 45.0731 31.1874C45.6633 30.5615 46.4089 30.0575 47.3101 29.6755C48.2221 29.284 49.3334 29.1294 50.6441 29.2118C52.3509 29.319 53.8976 29.865 55.2842 30.8497C56.6713 31.8242 57.7405 33.2327 58.4918 35.0751C59.2437 36.9073 59.5354 39.1646 59.3669 41.8468C59.2028 44.4579 58.6427 46.6361 57.6865 48.3814C56.741 50.1172 55.5179 51.4021 54.0171 52.236C52.5271 53.0604 50.8931 53.4167 49.1151 53.305C47.8553 53.2259 46.7965 52.9502 45.9388 52.4782C45.0912 52.0067 44.4078 51.4385 43.8886 50.7735C43.37 50.0983 42.9838 49.4263 42.73 48.7576L42.5319 48.7451L41.7449 61.2723L35.2527 60.8644ZM42.8945 40.7813C42.8071 42.1732 42.9238 43.3995 43.2448 44.46C43.5658 45.5206 44.0738 46.3634 44.769 46.9885C45.4647 47.6034 46.3359 47.9437 47.3823 48.0095C48.439 48.0758 49.3512 47.8424 50.1191 47.3093C50.8876 46.766 51.4924 45.988 51.9334 44.9753C52.3853 43.9531 52.6539 42.7612 52.7395 41.3998C52.8244 40.0485 52.7111 38.848 52.3996 37.7983C52.0882 36.7485 51.5849 35.9111 50.8898 35.286C50.1946 34.6609 49.3137 34.3149 48.2469 34.2479C47.1902 34.1815 46.2786 34.4047 45.512 34.9176C44.7555 35.431 44.152 36.1887 43.7015 37.1906C43.251 38.1925 42.982 39.3894 42.8945 40.7813ZM62.9616 53.7924L64.4322 30.384L70.7263 30.7794L70.4697 34.8637L70.7135 34.879C71.2315 33.453 72.0167 32.4007 73.0691 31.7222C74.1222 31.0336 75.304 30.7304 76.6147 30.8127C76.9398 30.8332 77.289 30.8755 77.6624 30.9398C78.0357 31.004 78.3624 31.0806 78.6424 31.1696L78.2805 36.9303C77.9815 36.8197 77.565 36.7119 77.031 36.607C76.4969 36.502 76.0064 36.4355 75.5594 36.4074C74.6044 36.3474 73.7378 36.5021 72.9598 36.8714C72.1926 37.2312 71.5676 37.7632 71.0848 38.4672C70.6121 39.1719 70.3458 40.0018 70.2858 40.9568L69.4538 54.2003L62.9616 53.7924ZM89.9798 55.9488C87.6125 55.8001 85.5969 55.1685 83.9329 54.0542C82.2797 52.9303 81.0426 51.4348 80.2215 49.5676C79.401 47.6903 79.0661 45.5527 79.2168 43.155C79.3687 40.737 79.9688 38.6531 81.0171 36.9033C82.0661 35.1434 83.4807 33.8145 85.2609 32.9165C87.0519 32.009 89.131 31.6297 91.4983 31.7784C93.8655 31.9271 95.8757 32.5634 97.5289 33.6873C99.1929 34.8016 100.435 36.2974 101.256 38.1748C102.077 40.042 102.411 42.1846 102.259 44.6026C102.109 47.0004 101.509 49.0792 100.46 50.8391C99.4117 52.5888 97.992 53.9174 96.201 54.8249C94.4208 55.7229 92.3471 56.0975 89.9798 55.9488ZM90.3262 50.9215C91.4032 50.9892 92.3215 50.7409 93.0811 50.1766C93.8414 49.6022 94.4379 48.7931 94.8707 47.7492C95.3137 46.7061 95.5779 45.5038 95.6634 44.1423C95.7489 42.7809 95.6373 41.555 95.3284 40.4646C95.0296 39.3748 94.5391 38.4974 93.8566 37.8323C93.1742 37.1673 92.2945 36.8009 91.2176 36.7332C90.1305 36.665 89.1966 36.9174 88.416 37.4905C87.6456 38.0643 87.0389 38.8728 86.5959 39.916C86.1632 40.9598 85.904 42.1624 85.8185 43.5239C85.7329 44.8853 85.8396 46.1109 86.1383 47.2006C86.4472 48.291 86.9479 49.1691 87.6405 49.8348C88.3439 50.491 89.2391 50.8532 90.3262 50.9215ZM107.222 33.0722L113.714 33.4801L112.171 58.0467C112.057 59.8551 111.61 61.2958 110.828 62.3687C110.047 63.4416 108.974 64.1954 107.611 64.6299C106.257 65.0651 104.661 65.2249 102.822 65.1094C102.599 65.0953 102.386 65.0769 102.183 65.0539C101.97 65.0405 101.747 65.0214 101.514 64.9966L101.832 59.9217C102.005 59.9427 102.157 59.9574 102.289 59.9657C102.41 59.9835 102.542 59.9969 102.684 60.0058C103.73 60.0715 104.476 59.894 104.921 59.4731C105.375 59.063 105.63 58.4161 105.685 57.5321L107.222 33.0722ZM110.642 30.2577C109.687 30.1977 108.884 29.8259 108.234 29.1425C107.584 28.4488 107.287 27.6499 107.344 26.7457C107.4 25.8516 107.794 25.1062 108.525 24.5096C109.257 23.9027 110.1 23.6293 111.055 23.6893C112.03 23.7506 112.838 24.1277 113.478 24.8207C114.128 25.5042 114.426 26.293 114.369 27.187C114.313 28.0913 113.918 28.8468 113.187 29.4536C112.466 30.0509 111.618 30.319 110.642 30.2577ZM128.083 58.3426C125.675 58.1913 123.633 57.5734 121.957 56.4889C120.292 55.3949 119.048 53.9194 118.227 52.0624C117.406 50.1952 117.073 48.0272 117.228 45.5583C117.379 43.1504 117.979 41.0665 119.028 39.3066C120.077 37.5467 121.482 36.2121 123.242 35.3027C125.013 34.3939 127.046 34.0117 129.343 34.1559C130.887 34.2529 132.309 34.5922 133.609 35.1736C134.919 35.7455 136.041 36.5555 136.975 37.6036C137.919 38.6523 138.623 39.9409 139.088 41.4696C139.554 42.988 139.724 44.7429 139.599 46.7342L139.487 48.5173L119.721 47.2755L119.974 43.2522L133.629 44.1101C133.687 43.1753 133.536 42.3345 133.175 41.5877C132.814 40.8408 132.285 40.2415 131.59 39.7898C130.905 39.3285 130.09 39.0682 129.145 39.0089C128.159 38.947 127.271 39.1207 126.48 39.53C125.701 39.9298 125.073 40.4973 124.599 41.2325C124.125 41.9575 123.854 42.782 123.785 43.7059L123.545 47.5311C123.472 48.6893 123.623 49.7035 123.997 50.5735C124.38 51.4443 124.954 52.1331 125.718 52.6401C126.482 53.1471 127.407 53.4347 128.494 53.503C129.216 53.5483 129.882 53.4882 130.495 53.3227C131.107 53.1571 131.639 52.8846 132.091 52.505C132.544 52.1254 132.9 51.648 133.161 51.0727L139.14 51.8462C138.745 53.2698 138.041 54.4903 137.028 55.5079C136.026 56.516 134.765 57.2731 133.244 57.7794C131.734 58.2761 130.014 58.4638 128.083 58.3426ZM153.64 59.9482C151.243 59.7975 149.212 59.16 147.549 58.0355C145.896 56.9014 144.665 55.3961 143.855 53.5194C143.054 51.6433 142.729 49.5217 142.877 47.1544C143.028 44.7567 143.622 42.6826 144.661 40.9322C145.71 39.1723 147.124 37.8383 148.905 36.9302C150.687 36.0119 152.761 35.6271 155.128 35.7759C157.171 35.9042 158.935 36.3873 160.423 37.2254C161.91 38.0634 163.059 39.1811 163.869 40.5784C164.679 41.9756 165.073 43.5814 165.05 45.3956L158.924 45.0107C158.825 43.8315 158.427 42.863 157.73 42.1052C157.043 41.3379 156.106 40.9169 154.917 40.8422C153.911 40.779 153.015 40.9981 152.229 41.4995C151.454 41.9914 150.825 42.7424 150.343 43.7525C149.862 44.7627 149.575 46.0043 149.482 47.4775C149.388 48.971 149.512 50.2538 149.852 51.3258C150.203 52.3984 150.737 53.2327 151.454 53.8285C152.172 54.4244 153.033 54.7539 154.039 54.8171C154.781 54.8637 155.456 54.7531 156.064 54.4853C156.683 54.2182 157.204 53.8072 157.626 53.2524C158.059 52.688 158.363 51.9981 158.536 51.1828L164.663 51.5677C164.449 53.3495 163.862 54.8936 162.903 56.2002C161.954 57.4972 160.694 58.4788 159.122 59.1451C157.551 59.8113 155.723 60.079 153.64 59.9482ZM182.202 37.7827L181.896 42.6595L167.799 41.7738L168.105 36.8971L182.202 37.7827ZM171.658 31.4899L178.15 31.8978L176.779 53.7212C176.741 54.3206 176.803 54.7937 176.965 55.1405C177.128 55.4771 177.367 55.7217 177.684 55.8742C178.011 56.0273 178.393 56.1176 178.83 56.1451C179.135 56.1642 179.441 56.1579 179.749 56.1263C180.058 56.0845 180.294 56.0534 180.459 56.0332L181.176 60.9284C180.845 61.0095 180.38 61.0976 179.783 61.1927C179.184 61.2979 178.463 61.3393 177.618 61.3168C176.049 61.2795 174.691 60.985 173.542 60.4334C172.404 59.8825 171.541 59.0837 170.954 58.0371C170.367 56.9904 170.127 55.7003 170.233 54.1668L171.658 31.4899ZM205.195 45.9286L199.228 45.921C199.159 45.4066 198.969 44.9357 198.659 44.5082C198.35 44.0706 197.929 43.7126 197.395 43.4343C196.873 43.1465 196.236 42.979 195.484 42.9317C194.478 42.8685 193.616 43.0286 192.899 43.4119C192.182 43.7851 191.801 44.3222 191.757 45.0232C191.722 45.582 191.916 46.0685 192.339 46.4826C192.761 46.8968 193.509 47.2549 194.581 47.5568L198.764 48.6764C201.011 49.2867 202.66 50.1452 203.713 51.2517C204.765 52.3582 205.239 53.7547 205.133 55.4413C205.036 56.9754 204.5 58.2932 203.523 59.3946C202.556 60.4967 201.27 61.3237 199.664 61.8756C198.069 62.418 196.256 62.6254 194.224 62.4978C191.125 62.3031 188.697 61.5028 186.939 60.097C185.192 58.6816 184.231 56.8465 184.057 54.5915L190.463 54.6574C190.597 55.6144 191.019 56.3651 191.729 56.9095C192.44 57.4438 193.375 57.7473 194.533 57.8201C195.671 57.8916 196.599 57.7306 197.318 57.3371C198.047 56.9341 198.438 56.3824 198.493 55.682C198.519 55.0921 198.301 54.5939 197.837 54.1873C197.373 53.7706 196.64 53.4288 195.637 53.1617L191.634 52.0993C189.377 51.4985 187.725 50.5992 186.678 49.4012C185.641 48.2039 185.178 46.7315 185.288 44.984C185.382 43.4803 185.87 42.2104 186.751 41.1744C187.642 40.139 188.848 39.3732 190.368 38.8772C191.899 38.3817 193.665 38.1969 195.666 38.3226C198.623 38.5083 200.91 39.2793 202.528 40.6356C204.157 41.9925 205.046 43.7568 205.195 45.9286Z" fill="black"/>
</svg>
