<svg width="297" height="136" viewBox="0 0 297 136" fill="none" xmlns="http://www.w3.org/2000/svg">
<rect x="57" y="59" width="239.384" height="70" rx="12" transform="rotate(1.58684 57 59)" fill="#9AE1FC"/>
<path d="M85.5757 111.174L77.4988 79.6653L84.7186 79.8657L89.2902 101.73L89.5497 101.737L95.8614 80.175L102.043 80.3466L107.133 102.271L107.407 102.279L113.186 80.6559L120.406 80.8563L110.593 111.869L104.152 111.69L98.7664 91.0862L98.5222 91.0794L92.0171 111.353L85.5757 111.174ZM131.107 112.896C128.695 112.829 126.633 112.283 124.92 111.258C123.217 110.223 121.923 108.792 121.037 106.965C120.151 105.128 119.742 102.973 119.811 100.5C119.878 98.088 120.405 95.9844 121.392 94.1889C122.378 92.3934 123.735 91.0104 125.463 90.04C127.201 89.0698 129.22 88.6167 131.519 88.6805C133.066 88.7234 134.499 89.0127 135.818 89.5483C137.148 90.0741 138.298 90.8443 139.268 91.8591C140.248 92.8741 140.997 94.1373 141.515 95.6487C142.033 97.15 142.265 98.8978 142.21 100.892L142.16 102.678L122.363 102.129L122.474 98.099L136.151 98.4786C136.177 97.5424 135.997 96.7074 135.61 95.9736C135.223 95.2398 134.673 94.6594 133.962 94.2323C133.262 93.7953 132.438 93.5637 131.492 93.5374C130.505 93.51 129.623 93.7147 128.847 94.1514C128.082 94.5783 127.475 95.1674 127.026 95.9187C126.578 96.6599 126.336 97.4933 126.3 98.419L126.193 102.25C126.161 103.41 126.347 104.419 126.751 105.275C127.165 106.132 127.763 106.8 128.544 107.28C129.325 107.76 130.26 108.015 131.349 108.045C132.071 108.065 132.735 107.982 133.341 107.795C133.947 107.608 134.47 107.317 134.908 106.922C135.347 106.527 135.687 106.037 135.927 105.453L141.93 106.017C141.584 107.454 140.924 108.698 139.947 109.751C138.981 110.793 137.747 111.594 136.245 112.153C134.753 112.702 133.04 112.95 131.107 112.896ZM146.246 112.858L147.114 81.5977L153.617 81.7782L153.29 93.5315L153.489 93.537C153.791 92.914 154.221 92.2843 154.778 91.648C155.346 91.0018 156.074 90.4721 156.961 90.0588C157.859 89.6357 158.964 89.4423 160.277 89.4787C161.986 89.5262 163.551 90.0177 164.971 90.9533C166.392 91.8787 167.51 93.2489 168.325 95.0639C169.14 96.8687 169.511 99.1144 169.436 101.801C169.364 104.416 168.88 106.613 167.986 108.39C167.101 110.158 165.924 111.485 164.453 112.371C162.993 113.247 161.373 113.66 159.592 113.611C158.33 113.576 157.262 113.337 156.388 112.895C155.525 112.454 154.822 111.91 154.28 111.264C153.738 110.607 153.328 109.949 153.051 109.289L152.761 109.281L152.657 113.036L146.246 112.858ZM152.937 101.312C152.898 102.706 153.058 103.928 153.416 104.977C153.773 106.025 154.311 106.85 155.027 107.45C155.744 108.04 156.627 108.35 157.675 108.379C158.733 108.408 159.637 108.143 160.385 107.584C161.134 107.014 161.712 106.215 162.117 105.187C162.533 104.15 162.76 102.95 162.797 101.586C162.835 100.233 162.68 99.0368 162.332 97.9986C161.984 96.9603 161.451 96.141 160.735 95.5407C160.018 94.9403 159.126 94.6253 158.057 94.5956C156.999 94.5662 156.096 94.8212 155.348 95.3606C154.61 95.9002 154.033 96.6785 153.618 97.6956C153.202 98.7126 152.976 99.9182 152.937 101.312ZM180.124 114.242C178.628 114.2 177.302 113.904 176.146 113.352C174.991 112.791 174.086 111.986 173.433 110.94C172.79 109.883 172.49 108.582 172.533 107.035C172.57 105.732 172.839 104.645 173.342 103.773C173.845 102.901 174.516 102.207 175.355 101.69C176.194 101.174 177.142 100.793 178.197 100.547C179.263 100.302 180.378 100.139 181.541 100.059C182.909 99.9547 184.011 99.8529 184.849 99.754C185.687 99.6449 186.298 99.4683 186.682 99.2244C187.065 98.9804 187.264 98.6092 187.278 98.1105L187.28 98.0189C187.307 97.0522 187.023 96.2958 186.427 95.7497C185.841 95.2039 184.994 94.9156 183.884 94.8848C182.714 94.8523 181.776 95.086 181.07 95.5857C180.363 96.0753 179.888 96.7037 179.642 97.4709L173.642 96.8155C173.987 95.3993 174.621 94.1847 175.546 93.1716C176.47 92.1483 177.647 91.3765 179.077 90.856C180.518 90.3257 182.174 90.0866 184.047 90.1385C185.349 90.1747 186.592 90.3619 187.774 90.7003C188.966 91.0389 190.016 91.5416 190.925 92.2084C191.843 92.8754 192.558 93.7202 193.069 94.7426C193.581 95.7548 193.817 96.958 193.779 98.3521L193.34 114.166L187.173 113.994L187.263 110.743L187.08 110.738C186.683 111.46 186.162 112.093 185.515 112.635C184.869 113.167 184.099 113.578 183.205 113.869C182.311 114.15 181.284 114.274 180.124 114.242ZM182.111 109.806C183.067 109.832 183.917 109.668 184.66 109.311C185.404 108.945 185.993 108.442 186.428 107.802C186.864 107.163 187.093 106.431 187.116 105.606L187.185 103.118C186.977 103.245 186.694 103.359 186.335 103.461C185.986 103.554 185.592 103.639 185.152 103.719C184.712 103.788 184.272 103.852 183.832 103.911C183.393 103.96 182.995 104.005 182.637 104.046C181.871 104.137 181.199 104.297 180.623 104.525C180.046 104.753 179.594 105.072 179.267 105.48C178.941 105.879 178.769 106.383 178.752 106.993C178.727 107.879 179.029 108.564 179.657 109.05C180.296 109.526 181.113 109.778 182.111 109.806ZM198.14 123.098L199.035 90.8601L205.446 91.0381L205.337 94.9762L205.627 94.9842C205.929 94.3612 206.359 93.7316 206.917 93.0953C207.484 92.4491 208.212 91.9194 209.099 91.5061C209.997 91.0829 211.102 90.8895 212.415 90.926C214.124 90.9734 215.689 91.465 217.109 92.4006C218.53 93.326 219.648 94.6962 220.463 96.5112C221.279 98.316 221.649 100.562 221.574 103.248C221.502 105.863 221.018 108.06 220.124 109.838C219.239 111.605 218.062 112.932 216.591 113.818C215.131 114.694 213.511 115.107 211.73 115.058C210.468 115.023 209.4 114.785 208.526 114.343C207.663 113.901 206.96 113.357 206.418 112.711C205.876 112.054 205.467 111.396 205.19 110.737L204.991 110.731L204.643 123.278L198.14 123.098ZM205.075 102.76C205.036 104.154 205.196 105.375 205.554 106.424C205.912 107.472 206.449 108.297 207.165 108.897C207.882 109.488 208.765 109.797 209.813 109.826C210.871 109.856 211.775 109.59 212.523 109.031C213.272 108.461 213.85 107.662 214.255 106.635C214.671 105.597 214.898 104.397 214.935 103.033C214.973 101.68 214.818 100.484 214.47 99.4458C214.122 98.4076 213.59 97.5883 212.873 96.9879C212.156 96.3875 211.264 96.0725 210.195 96.0429C209.137 96.0135 208.234 96.2685 207.486 96.8078C206.748 97.3474 206.171 98.1258 205.756 99.1428C205.341 100.16 205.114 101.365 205.075 102.76ZM225.341 123.853L226.236 91.6151L232.647 91.7931L232.537 95.7312L232.827 95.7392C233.13 95.1162 233.56 94.4866 234.117 93.8503C234.685 93.2041 235.412 92.6744 236.3 92.2611C237.197 91.8379 238.303 91.6446 239.615 91.681C241.325 91.7285 242.89 92.22 244.31 93.1556C245.73 94.081 246.848 95.4512 247.663 97.2662C248.479 99.071 248.849 101.317 248.775 104.003C248.702 106.618 248.219 108.815 247.324 110.593C246.44 112.36 245.263 113.687 243.792 114.573C242.332 115.449 240.711 115.862 238.93 115.813C237.668 115.778 236.601 115.54 235.727 115.098C234.863 114.656 234.16 114.112 233.618 113.466C233.076 112.809 232.667 112.151 232.39 111.492L232.192 111.486L231.843 124.033L225.341 123.853ZM232.275 103.515C232.237 104.909 232.396 106.13 232.754 107.179C233.112 108.227 233.649 109.052 234.366 109.652C235.083 110.243 235.965 110.552 237.013 110.581C238.072 110.611 238.975 110.346 239.724 109.786C240.473 109.216 241.05 108.417 241.455 107.39C241.871 106.352 242.098 105.152 242.136 103.788C242.173 102.435 242.018 101.239 241.67 100.201C241.322 99.1626 240.79 98.3433 240.073 97.7429C239.357 97.1426 238.464 96.8275 237.396 96.7979C236.338 96.7685 235.434 97.0235 234.686 97.5628C233.948 98.1025 233.371 98.8808 232.956 99.8978C232.541 100.915 232.314 102.12 232.275 103.515ZM272.758 99.5973L266.795 99.7984C266.707 99.2867 266.501 98.8228 266.177 98.4064C265.852 97.9799 265.419 97.6368 264.876 97.3774C264.344 97.108 263.701 96.9629 262.948 96.942C261.941 96.914 261.085 97.1041 260.381 97.5123C259.678 97.9103 259.316 98.4604 259.297 99.1625C259.281 99.7222 259.492 100.202 259.929 100.601C260.366 101 261.126 101.332 262.208 101.596L266.428 102.568C268.694 103.1 270.373 103.9 271.463 104.969C272.554 106.038 273.076 107.417 273.029 109.106C272.986 110.643 272.496 111.979 271.558 113.114C270.63 114.249 269.374 115.12 267.789 115.728C266.214 116.326 264.409 116.597 262.374 116.54C259.27 116.454 256.815 115.739 255.009 114.396C253.214 113.042 252.189 111.242 251.936 108.994L258.341 108.836C258.508 109.788 258.956 110.523 259.685 111.043C260.414 111.552 261.359 111.822 262.519 111.854C263.659 111.886 264.581 111.693 265.285 111.274C265.999 110.846 266.371 110.281 266.401 109.579C266.407 108.989 266.171 108.498 265.693 108.108C265.216 107.708 264.471 107.392 263.459 107.16L259.421 106.239C257.144 105.717 255.462 104.876 254.374 103.716C253.296 102.555 252.781 101.1 252.83 99.3496C252.872 97.8436 253.315 96.5574 254.159 95.4912C255.014 94.4253 256.192 93.6178 257.694 93.0688C259.206 92.5201 260.965 92.2736 262.969 92.3293C265.931 92.4115 268.243 93.102 269.908 94.4008C271.583 95.6999 272.533 97.4321 272.758 99.5973Z" fill="black"/>
<rect x="0.362793" y="25.3491" width="151.374" height="70" rx="12" transform="rotate(-9.41176 0.362793 25.3491)" fill="#C3AFEC"/>
<path d="M49.3406 45.79C49.0187 44.5948 48.345 43.7365 47.3196 43.2151C46.2942 42.6937 44.9981 42.5628 43.4314 42.8224C42.3669 42.9988 41.493 43.2985 40.8098 43.7212C40.1249 44.134 39.6299 44.6339 39.3248 45.2211C39.0297 45.8066 38.9371 46.4307 39.0469 47.0936C39.1184 47.6492 39.3138 48.1122 39.6331 48.4823C39.9624 48.8508 40.3781 49.1482 40.8799 49.3746C41.3801 49.591 41.9448 49.7605 42.5739 49.8833C43.2014 49.996 43.8641 50.0719 44.5619 50.111L47.4436 50.3145C48.8393 50.3927 50.1412 50.5897 51.3492 50.9055C52.5572 51.2212 53.6338 51.6774 54.5788 52.274C55.5238 52.8707 56.3047 53.6287 56.9214 54.5481C57.5481 55.4657 57.9731 56.5665 58.1961 57.8503C58.499 59.7401 58.2882 61.457 57.5638 63.001C56.8478 64.5333 55.6593 65.8293 53.9981 66.8888C52.3453 67.9366 50.2636 68.6686 47.7528 69.0847C45.2622 69.4975 43.0297 69.4753 41.0553 69.0183C39.0909 68.5596 37.4675 67.6678 36.1851 66.3429C34.9111 65.0062 34.065 63.2323 33.647 61.0211L39.959 59.975C40.2007 60.9978 40.6401 61.8124 41.2772 62.4188C41.9227 63.0135 42.7164 63.4134 43.6584 63.6184C44.6088 63.8117 45.6464 63.8152 46.7713 63.6288C47.876 63.4457 48.8085 63.1261 49.5687 62.6699C50.3389 62.212 50.9026 61.6594 51.2597 61.0121C51.6167 60.3647 51.7337 59.6695 51.6105 58.9263C51.4957 58.2333 51.1932 57.685 50.7033 57.2812C50.2233 56.8757 49.5642 56.5722 48.7259 56.3706C47.8977 56.1674 46.8987 56.0234 45.729 55.9386L42.2298 55.6517C39.5238 55.4501 37.3061 54.8013 35.5766 53.7052C33.8471 52.6091 32.7985 50.9203 32.4307 48.6389C32.1111 46.7726 32.3378 45.0582 33.1107 43.4958C33.8937 41.9317 35.1041 40.6116 36.7418 39.5353C38.3795 38.459 40.3232 37.7344 42.5728 37.3616C44.8626 36.9821 46.9261 37.0426 48.7632 37.543C50.6104 38.0417 52.1267 38.91 53.3121 40.1479C54.4975 41.3857 55.2576 42.9211 55.5923 44.754L49.3406 45.79ZM70.5943 65.2992C69.1179 65.5439 67.7599 65.5058 66.5201 65.185C65.2786 64.8542 64.2373 64.2374 63.3964 63.3346C62.5638 62.42 62.021 61.1995 61.768 59.673C61.5549 58.3875 61.612 57.2688 61.9392 56.3168C62.2664 55.3648 62.7927 54.5553 63.5179 53.8882C64.2432 53.2211 65.1006 52.6663 66.0901 52.2237C67.0896 51.7794 68.1527 51.4072 69.2792 51.107C70.6017 50.7433 71.6647 50.433 72.4682 50.176C73.2701 49.909 73.8361 49.6192 74.166 49.3065C74.496 48.9938 74.6202 48.5915 74.5387 48.0994L74.5237 48.009C74.3656 47.0549 73.942 46.3667 73.2528 45.9443C72.5737 45.5203 71.6869 45.399 70.5922 45.5804C69.4372 45.7718 68.5608 46.1802 67.9627 46.8055C67.363 47.4209 67.0159 48.1285 66.9215 48.9283L60.9062 49.4299C60.9745 47.974 61.3656 46.6606 62.0797 45.4898C62.792 44.3089 63.8004 43.3266 65.1048 42.5429C66.4176 41.7474 67.998 41.1966 69.8459 40.8904C71.1314 40.6773 72.3866 40.6241 73.6115 40.7306C74.8465 40.8355 75.9734 41.1286 76.9922 41.6098C78.021 42.0894 78.8839 42.7822 79.581 43.6882C80.2764 44.5842 80.7381 45.7202 80.9661 47.0961L83.5526 62.7028L77.4665 63.7114L76.9348 60.5027L76.754 60.5327C76.5022 61.3173 76.1108 62.0374 75.5797 62.693C75.0469 63.3385 74.3694 63.8893 73.5473 64.3455C72.7235 64.7916 71.7392 65.1095 70.5943 65.2992ZM71.6981 60.5657C72.6422 60.4092 73.4449 60.0853 74.1064 59.5939C74.7663 59.0924 75.2488 58.4862 75.5541 57.7752C75.8593 57.0642 75.9445 56.302 75.8097 55.4885L75.4027 53.033C75.2235 53.1968 74.9673 53.3631 74.6341 53.5319C74.3093 53.6889 73.9385 53.8484 73.5216 54.0103C73.1031 54.1622 72.6837 54.3091 72.2635 54.451C71.8416 54.5828 71.4591 54.703 71.1159 54.8114C70.381 55.0467 69.7523 55.3315 69.2299 55.6657C68.7074 56 68.3247 56.3988 68.0816 56.8621C67.8368 57.3154 67.7644 57.8434 67.8642 58.446C68.009 59.3197 68.4361 59.9351 69.1453 60.2922C69.863 60.6377 70.7139 60.7288 71.6981 60.5657ZM95.202 61.221C93.7257 61.4657 92.3676 61.4276 91.1278 61.1068C89.8863 60.776 88.845 60.1592 88.0041 59.2564C87.1715 58.3418 86.6287 57.1213 86.3757 55.5948C86.1626 54.3093 86.2197 53.1906 86.5469 52.2386C86.8742 51.2866 87.4004 50.4771 88.1257 49.81C88.8509 49.1429 89.7083 48.5881 90.6978 48.1455C91.6973 47.7012 92.7604 47.329 93.887 47.0288C95.2094 46.6652 96.2724 46.3548 97.076 46.0978C97.8778 45.8308 98.4438 45.541 98.7737 45.2283C99.1037 44.9156 99.2279 44.5133 99.1464 44.0212L99.1314 43.9308C98.9733 42.9767 98.5497 42.2885 97.8605 41.8661C97.1815 41.4421 96.2946 41.3208 95.1999 41.5022C94.045 41.6936 93.1685 42.102 92.5704 42.7273C91.9707 43.3427 91.6237 44.0503 91.5292 44.8502L85.5139 45.3518C85.5822 43.8958 85.9734 42.5824 86.6874 41.4116C87.3997 40.2307 88.4081 39.2484 89.7125 38.4647C91.0253 37.6692 92.6057 37.1184 94.4536 36.8122C95.7391 36.5991 96.9943 36.5459 98.2193 36.6524C99.4543 36.7573 100.581 37.0504 101.6 37.5316C102.629 38.0112 103.492 38.704 104.189 39.6101C104.884 40.506 105.346 41.642 105.574 43.0179L108.16 58.6246L102.074 59.6332L101.542 56.4245L101.362 56.4545C101.11 57.2391 100.719 57.9593 100.187 58.6148C99.6546 59.2603 98.9772 59.8111 98.155 60.2673C97.3312 60.7134 96.3469 61.0313 95.202 61.221ZM96.3058 56.4875C97.2499 56.331 98.0526 56.0071 98.7141 55.5157C99.374 55.0142 99.8565 54.408 100.162 53.697C100.467 52.986 100.552 52.2238 100.417 51.4103L100.01 48.9548C99.8312 49.1186 99.575 49.2849 99.2418 49.4537C98.917 49.6107 98.5462 49.7702 98.1293 49.9321C97.7108 50.084 97.2914 50.2309 96.8712 50.3728C96.4494 50.5046 96.0668 50.6248 95.7237 50.7332C94.9887 50.9685 94.3601 51.2533 93.8376 51.5875C93.3151 51.9218 92.9324 52.3206 92.6893 52.7839C92.4445 53.2372 92.3721 53.7652 92.4719 54.3678C92.6167 55.2415 93.0438 55.8569 93.753 56.2141C94.4707 56.5595 95.3216 56.6506 96.3058 56.4875ZM129.65 38.0681L123.835 39.4033C123.651 38.9178 123.36 38.5017 122.962 38.1549C122.563 37.798 122.072 37.544 121.49 37.3929C120.916 37.23 120.257 37.2102 119.514 37.3333C118.52 37.4981 117.716 37.848 117.103 38.383C116.488 38.9079 116.238 39.5169 116.353 40.2098C116.445 40.7622 116.743 41.1926 117.248 41.501C117.753 41.8094 118.562 41.99 119.675 42.0429L124.003 42.1925C126.329 42.2816 128.13 42.7468 129.404 43.5881C130.679 44.4294 131.454 45.6837 131.73 47.3508C131.982 48.8673 131.755 50.272 131.051 51.565C130.357 52.8564 129.29 53.9516 127.85 54.8507C126.418 55.738 124.698 56.3482 122.689 56.681C119.626 57.1887 117.08 56.9554 115.051 55.9812C113.03 54.9953 111.681 53.4234 111.004 51.2656L117.261 49.8881C117.606 50.7905 118.187 51.4269 119.001 51.7975C119.814 52.1581 120.793 52.2435 121.938 52.0538C123.063 51.8674 123.931 51.5016 124.542 50.9566C125.162 50.3999 125.42 49.7742 125.315 49.0796C125.208 48.4987 124.883 48.0625 124.339 47.7708C123.794 47.469 123.003 47.301 121.965 47.2666L117.826 47.1322C115.491 47.0548 113.679 46.5502 112.39 45.6185C111.11 44.6852 110.327 43.3548 110.041 41.6274C109.795 40.1411 109.984 38.794 110.61 37.5863C111.245 36.3769 112.247 35.3594 113.617 34.5339C114.997 33.7068 116.676 33.1293 118.655 32.8014C121.577 32.317 123.979 32.5535 125.861 33.5109C127.753 34.4665 129.016 35.9856 129.65 38.0681Z" fill="black"/>
</svg>
